<?xml version="1.0" encoding="UTF-8"?>
<svg id="a" data-name="图层 1" xmlns="http://www.w3.org/2000/svg" viewBox="0 0 128 128">
  <path d="M32,8V0h8v8h-8Z" style="fill: #dd5f92;"/>
  <path d="M88,8V0h8v8h-8Z" style="fill: #dd5f92;"/>
  <path d="M16,16v-8h8v8h-8Z" style="fill: #ef6f91;"/>
  <path d="M32,16v-8h8v8h-8Z" style="fill: #ef6f91;"/>
  <path d="M40,16v-8h8v8h-8Z" style="fill: #d34d87;"/>
  <path d="M80,16v-8h8v8h-8Z" style="fill: #d34d87;"/>
  <path d="M88,16v-8h8v8h-8Z" style="fill: #ef6f91;"/>
  <path d="M104,16v-8h8v8h-8Z" style="fill: #ef6f91;"/>
  <path d="M16,24v-8h8v8h-8Z" style="fill: #dd5f92;"/>
  <path d="M24,24v-8h8v8h-8Z" style="fill: #ef6f91;"/>
  <path d="M32,24v-8h8v8h-8Z" style="fill: #f9c6e4;"/>
  <path d="M48,32h-8v-8h16v8h-8v-16h8v8h-16v-8h8v16Z" style="fill: #fcdff0;"/>
  <path d="M64,24h-8v-8h32v24h-48v-8h40v8h-8v-24h8v8h-24v-8h8v8Z" style="fill: #fcdff0;"/>
  <path d="M88,24v-8h8v8h-8Z" style="fill: #f9c6e4;"/>
  <path d="M96,24v-8h8v8h-8Z" style="fill: #ef6f91;"/>
  <path d="M104,24v-8h8v8h-8Z" style="fill: #dd5f92;"/>
  <path d="M24,32v-8h8v8h-8Z" style="fill: #d34d87;"/>
  <path d="M32,32v-8h8v8h-8Z" style="fill: #39006b;"/>
  <path d="M64,32h-8v-8h16v8h-16v-8h8v8Z" style="fill: #f9c6e4;"/>
  <path d="M88,32v-8h8v8h-8Z" style="fill: #39006b;"/>
  <path d="M96,32v-8h8v8h-8Z" style="fill: #d34d87;"/>
  <path d="M24,40h-8v-8h16v8h-16v-8h8v8Z" style="fill: #ef6f91;"/>
  <path d="M32,40v-8h8v8h-8Z" style="fill: #f9c6e4;"/>
  <path d="M88,40v-8h8v8h-8Z" style="fill: #f9c6e4;"/>
  <path d="M104,40h-8v-8h16v8h-16v-8h8v8Z" style="fill: #ef6f91;"/>
  <path d="M24,96h-8v-56h8v56Z" style="fill: #343434;"/>
  <path d="M24,48v-8h8v8h-8Z" style="fill: #234eca;"/>
  <path d="M40,48h-8v-8h64v8H32v-8h8v8Z" style="fill: #e68cd2;"/>
  <path d="M96,48v-8h8v8h-8Z" style="fill: #234eca;"/>
  <path d="M112,96h-8v-48h8v8h-24v-8h24v8h-8v-16h8v56Z" style="fill: #343434;"/>
  <path d="M24,56v-8h8v8h-8Z" style="fill: #335ed7;"/>
  <path d="M32,56v-8h8v8h-8Z" style="fill: #343434;"/>
  <path d="M40,56v-8h8v8h-8Z" style="fill: #af569c;"/>
  <path d="M56,56h-8v-8h24v8h-24v-8h8v8Z" style="fill: #335ed7;"/>
  <path d="M72,56v-8h8v8h-8Z" style="fill: #234eca;"/>
  <path d="M80,56v-8h8v8h-8Z" style="fill: #af569c;"/>
  <path d="M32,80h-8v-24h8v24Z" style="fill: #d5d5d5;"/>
  <path d="M32,64v-8h8v8h-8Z" style="fill: #a6a6a6;"/>
  <path d="M40,64v-8h8v8h-8Z" style="fill: #e68cd2;"/>
  <path d="M48,64v-8h8v8h-8Z" style="fill: #343434;"/>
  <path d="M56,64v-8h8v8h-8Z" style="fill: #234eca;"/>
  <path d="M64,64v-8h8v8h-8Z" style="fill: #436ee6;"/>
  <path d="M72,64v-8h8v8h-8Z" style="fill: #343434;"/>
  <path d="M80,64v-8h8v8h-8Z" style="fill: #e68cd2;"/>
  <path d="M88,64v-8h8v8h-8Z" style="fill: #717171;"/>
  <path d="M104,72h-8v-16h8v16Z" style="fill: #949494;"/>
  <path d="M32,72v-8h8v8h-8Z" style="fill: #cf3573;"/>
  <path d="M40,72v-8h8v8h-8Z" style="fill: #f9c6e4;"/>
  <path d="M48,72v-8h8v8h-8Z" style="fill: #cf3573;"/>
  <path d="M64,80h-8v-8h16v8h-16v-8h8v24h-8v-8h16v16h-16v-8h8v24h-8v-48h8v8h-16v-8h16v8h-8v-16h8v16Z" style="fill: #a6a6a6;"/>
  <path d="M64,72v-8h8v8h-8Z" style="fill: #335ed7;"/>
  <path d="M72,72v-8h8v8h-8Z" style="fill: #cf3573;"/>
  <path d="M80,72v-8h8v8h-8Z" style="fill: #f9c6e4;"/>
  <path d="M88,72v-8h8v8h-8Z" style="fill: #cf3573;"/>
  <path d="M32,80v-8h8v8h-8Z" style="fill: #a6a6a6;"/>
  <path d="M40,80v-8h8v8h-8Z" style="fill: #cf3573;"/>
  <path d="M72,80v-8h8v8h-8Z" style="fill: #717171;"/>
  <path d="M80,80v-8h8v8h-8Z" style="fill: #cf3573;"/>
  <path d="M96,96h-16v-8h8v24h-8v-32h16v8h-8v-16h8v24Z" style="fill: #717171;"/>
  <path d="M104,88h-8v-16h8v16Z" style="fill: #a6a6a6;"/>
  <path d="M24,88v-8h8v8h-8Z" style="fill: #a6a6a6;"/>
  <path d="M40,104h-8v-24h8v24Z" style="fill: #d5d5d5;"/>
  <path d="M48,88h-8v-8h16v40h-8v-16h8v8h-16v-8h16v8h-8v-32h8v8h-16v-8h8v8Z" style="fill: #d5d5d5;"/>
  <path d="M64,88v-8h8v8h-8Z" style="fill: #335ed7;"/>
  <path d="M80,112h-16v-8h8v16h-8v-16h16v8h-8v-32h8v32Z" style="fill: #949494;"/>
  <path d="M24,96v-8h8v8h-8Z" style="fill: #717171;"/>
  <path d="M48,104h-8v-16h8v16Z" style="fill: #fcfcfc;"/>
  <path d="M96,96v-8h8v8h-8Z" style="fill: #949494;"/>
  <path d="M32,112h-8v-16h8v16Z" style="fill: #343434;"/>
  <path d="M96,112h-8v-16h8v16Z" style="fill: #949494;"/>
  <path d="M104,112h-8v-16h8v16Z" style="fill: #343434;"/>
  <path d="M32,112v-8h8v8h-8Z" style="fill: #a6a6a6;"/>
  <path d="M32,120v-8h8v8h-8Z" style="fill: #343434;"/>
  <path d="M40,120v-8h8v8h-8Z" style="fill: #a6a6a6;"/>
  <path d="M72,120v-8h8v8h-8Z" style="fill: #717171;"/>
  <path d="M80,120v-8h8v8h-8Z" style="fill: #949494;"/>
  <path d="M88,120v-8h8v8h-8Z" style="fill: #343434;"/>
  <path d="M48,128h-8v-8h48v8h-48v-8h8v8Z" style="fill: #343434;"/>
</svg>